<svg width="300" height="200" viewBox="0 0 300 200" fill="none" xmlns="http://www.w3.org/2000/svg">
  <defs>
    <linearGradient id="fernGradient" x1="0%" y1="0%" x2="100%" y2="100%">
      <stop offset="0%" style="stop-color:#43A047" />
      <stop offset="50%" style="stop-color:#4CAF50" />
      <stop offset="100%" style="stop-color:#2E7D32" />
    </linearGradient>
  </defs>
  
  <!-- Main fern stem -->
  <path d="M150 180 L150 80" stroke="#2E7D32" stroke-width="3" stroke-linecap="round"/>
  
  <!-- Fern fronds -->
  <!-- Left side fronds -->
  <path d="M150 160 L120 140 L110 120 L100 100 L90 80 L80 60" stroke="url(#fernGradient)" stroke-width="2" stroke-linecap="round" fill="none"/>
  <path d="M150 150 L130 130 L120 110 L110 90 L100 70 L90 50" stroke="url(#fernGradient)" stroke-width="2" stroke-linecap="round" fill="none"/>
  <path d="M150 140 L140 120 L130 100 L120 80 L110 60 L100 40" stroke="url(#fernGradient)" stroke-width="2" stroke-linecap="round" fill="none"/>
  
  <!-- Right side fronds -->
  <path d="M150 160 L180 140 L190 120 L200 100 L210 80 L220 60" stroke="url(#fernGradient)" stroke-width="2" stroke-linecap="round" fill="none"/>
  <path d="M150 150 L170 130 L180 110 L190 90 L200 70 L210 50" stroke="url(#fernGradient)" stroke-width="2" stroke-linecap="round" fill="none"/>
  <path d="M150 140 L160 120 L170 100 L180 80 L190 60 L200 40" stroke="url(#fernGradient)" stroke-width="2" stroke-linecap="round" fill="none"/>
  
  <!-- Top fronds -->
  <path d="M150 90 L140 70 L130 50 L120 30" stroke="url(#fernGradient)" stroke-width="2" stroke-linecap="round" fill="none"/>
  <path d="M150 90 L160 70 L170 50 L180 30" stroke="url(#fernGradient)" stroke-width="2" stroke-linecap="round" fill="none"/>
  <path d="M150 80 L145 60 L140 40 L135 20" stroke="url(#fernGradient)" stroke-width="2" stroke-linecap="round" fill="none"/>
  <path d="M150 80 L155 60 L160 40 L165 20" stroke="url(#fernGradient)" stroke-width="2" stroke-linecap="round" fill="none"/>
  
  <!-- Fern leaf details -->
  <circle cx="120" cy="140" r="2" fill="#4CAF50"/>
  <circle cx="180" cy="140" r="2" fill="#4CAF50"/>
  <circle cx="130" cy="130" r="2" fill="#4CAF50"/>
  <circle cx="170" cy="130" r="2" fill="#4CAF50"/>
  <circle cx="140" cy="120" r="2" fill="#4CAF50"/>
  <circle cx="160" cy="120" r="2" fill="#4CAF50"/>
  <circle cx="145" cy="110" r="2" fill="#4CAF50"/>
  <circle cx="155" cy="110" r="2" fill="#4CAF50"/>
  
  <!-- Decorative elements -->
  <circle cx="50" cy="50" r="3" fill="#00BFAE" opacity="0.6"/>
  <circle cx="250" cy="80" r="2" fill="#FFD600" opacity="0.6"/>
  <circle cx="80" cy="120" r="2" fill="#FF7043" opacity="0.6"/>
  <circle cx="220" cy="100" r="2" fill="#00BFAE" opacity="0.6"/>
  
  <!-- Ground/base -->
  <ellipse cx="150" cy="190" rx="40" ry="10" fill="#8BC34A" opacity="0.3"/>
</svg> 